# xmcd CD database file
#
# Track frame offsets:
#	182
#	15912
#	29850
#	41182
#	58307
#	71600
#	85950
#	98510
#	113567
#	127035
#	141620
#	154437
#
# Disc length: 2242 seconds
#
# Revision: 3
# Processed by: cddbd v1.5.2PL0 Copyright (c) Steve Scherf et al.
# Submitted via: CDex 1.60beta1
#
DISCID=af08c00c
DTITLE=Wesley Dennis - Wesley Dennis
DYEAR=1995
DGENRE=Country
TTITLE0=I Don't Know But I've Been Told
TTITLE1=Leave Me A Picture Of You
TTITLE2=Bubbaland
TTITLE3=Don't Make Me Feel At Home
TTITLE4=This Hat Ain't No Act
TTITLE5=Borrowed Angel
TTITLE6=In The Middle Of A Little Love
TTITLE7=It Ain't Fair
TTITLE8=Whiskey Behavior
TTITLE9=Lover's Junk Pile
TTITLE10=Who's Counting
TTITLE11=That Look Was Worth A Thousand Words
EXTD=YEAR: 1995
EXTT0=
EXTT1=
EXTT2=
EXTT3=
EXTT4=
EXTT5=
EXTT6=
EXTT7=
EXTT8=
EXTT9=
EXTT10=
EXTT11=
PLAYORDER=
